<svg width="60" height="72" viewBox="0 0 60 72" fill="none" xmlns="http://www.w3.org/2000/svg">
<path d="M58.4144 56.8429C55.7524 52.1108 51.3924 46.7511 44.2944 43.7041C40.2348 46.5442 35.3031 48.2164 29.9865 48.2164C24.6669 48.2164 19.7352 46.5443 15.6755 43.7041C8.5776 46.7511 4.21752 52.111 1.55704 56.8429C-1.97391 63.1192 0.79443 72 6.90107 72C13.0079 72 29.9866 72 29.9866 72C29.9866 72 46.9637 72 53.0706 72C59.1771 72 61.9455 63.1192 58.4144 56.8429Z" fill="black" fill-opacity="0.14"/>
<path d="M29.9866 42.2776C40.4131 42.2776 48.8628 33.825 48.8628 23.3999V18.8776C48.8628 8.45269 40.4131 0 29.9866 0C19.5586 0 11.1074 8.45269 11.1074 18.8778V23.4C11.1074 33.825 19.5587 42.2776 29.9866 42.2776Z" fill="black" fill-opacity="0.14"/>
</svg>
